<?xml version="1.0" encoding="UTF-8"?>
<!DOCTYPE svg PUBLIC "-//W3C//DTD SVG 1.1//EN" "http://www.w3.org/Graphics/SVG/1.1/DTD/svg11.dtd">
<svg xmlns="http://www.w3.org/2000/svg" version="1.1" width="515px" height="583px" style="shape-rendering:geometricPrecision; text-rendering:geometricPrecision; image-rendering:optimizeQuality; fill-rule:evenodd; clip-rule:evenodd" xmlns:xlink="http://www.w3.org/1999/xlink">
<g><path style="opacity:1" fill="#f08639" d="M 382.5,413.5 C 382.167,414.167 381.833,414.833 381.5,415.5C 346.761,417.516 314.094,426.683 283.5,443C 244.877,468.708 223.043,504.874 218,551.5C 216.575,561.835 216.409,572.168 217.5,582.5C 216.833,582.5 216.167,582.5 215.5,582.5C 143.833,537.327 89.9993,476.327 54,399.5C 18.0761,324.214 1.74278,244.881 5,161.5C 6.96584,124.635 15.9658,89.6352 32,56.5C 44.1345,34.6971 61.6345,18.8637 84.5,9C 110.74,0.0399207 134.74,4.03992 156.5,21C 173.167,36.3333 189.167,52.3333 204.5,69C 212.419,75.4173 220.752,81.2506 229.5,86.5C 227.78,87.934 225.78,88.7674 223.5,89C 209.111,90.6019 195.111,88.9352 181.5,84C 166.553,78.2393 151.22,73.9059 135.5,71C 117.018,69.1571 102.185,75.6571 91,90.5C 78.7234,107.979 70.7234,127.313 67,148.5C 50.9,271.78 80.2333,382.78 155,481.5C 163.108,490.614 172.108,498.614 182,505.5C 192.471,465.688 216.638,437.521 254.5,421C 285.822,409.05 318.155,405.05 351.5,409C 361.938,409.929 372.271,411.429 382.5,413.5 Z"/></g>
<g><path style="opacity:1" fill="#3e3c91" d="M 427.5,32.5 C 445.492,32.1884 462.825,35.3551 479.5,42C 501.9,53.9567 512.9,72.7901 512.5,98.5C 511.245,120.767 505.411,141.767 495,161.5C 478.454,190.389 458.454,216.722 435,240.5C 436.881,224.871 438.881,209.204 441,193.5C 444.007,145.497 421.34,120.497 373,118.5C 356.632,119.55 340.799,123.05 325.5,129C 304.818,138.117 283.818,146.45 262.5,154C 223.674,166.736 184.341,168.736 144.5,160C 134.049,157.107 124.049,153.107 114.5,148C 142.467,148.839 169.467,144.172 195.5,134C 210.861,127.82 225.861,120.82 240.5,113C 273.85,92.6545 307.85,73.3212 342.5,55C 369.591,42.238 397.924,34.738 427.5,32.5 Z"/></g>
<g><path style="opacity:0.343" fill="#000000" d="M 382.5,413.5 C 387.787,414.961 387.453,415.628 381.5,415.5C 381.833,414.833 382.167,414.167 382.5,413.5 Z"/></g>
</svg>
