<?xml version="1.0" standalone="no"?>
<!DOCTYPE svg PUBLIC "-//W3C//DTD SVG 20010904//EN"
 "http://www.w3.org/TR/2001/REC-SVG-20010904/DTD/svg10.dtd">
<svg version="1.0" xmlns="http://www.w3.org/2000/svg"
 width="2494.000000pt" height="1020.000000pt" viewBox="0 0 2494.000000 1020.000000"
 preserveAspectRatio="xMidYMid meet">

<g transform="translate(0.000000,1020.000000) scale(0.100000,-0.100000)"
fill="#000000" stroke="none">
<path d="M2250 9965 c-193 -32 -351 -98 -541 -224 -262 -174 -477 -420 -609
-697 -187 -392 -330 -883 -390 -1344 -72 -550 -41 -1378 76 -2085 144 -862
403 -1641 820 -2465 474 -938 1111 -1722 1917 -2363 191 -152 268 -209 491
-359 190 -128 245 -153 230 -105 -4 12 -7 103 -7 202 0 628 207 1210 587 1652
187 217 425 408 643 517 438 218 949 360 1407 392 80 6 103 11 119 27 20 20
20 20 1 27 -59 22 -414 70 -668 90 -545 43 -1194 -70 -1608 -282 -427 -217
-728 -523 -929 -943 -53 -112 -139 -345 -139 -380 0 -23 -7 -19 -84 38 -102
77 -254 215 -324 294 -126 141 -422 574 -596 873 -121 207 -354 674 -441 885
-483 1168 -646 2397 -494 3712 45 392 175 745 392 1068 90 133 230 253 362
308 241 101 472 73 1071 -128 324 -110 429 -129 669 -123 135 3 177 7 202 21
17 9 34 21 37 26 3 5 -32 31 -77 59 -147 90 -320 225 -412 322 -357 376 -705
710 -816 785 -155 104 -315 170 -486 200 -102 18 -298 18 -403 0z"/>
<path d="M7570 9495 c-463 -59 -944 -205 -1318 -401 -363 -190 -943 -517
-1402 -791 -291 -174 -528 -295 -815 -418 -475 -203 -844 -288 -1330 -304
l-200 -7 115 -56 c332 -163 692 -232 1200 -233 362 0 606 30 925 112 239 61
681 223 1090 398 510 218 878 296 1195 251 571 -80 874 -371 939 -901 20 -164
13 -277 -40 -686 -27 -215 -49 -402 -47 -417 3 -22 18 -8 140 124 316 344 572
685 804 1069 211 350 337 760 351 1141 9 241 -27 411 -124 583 -82 146 -253
306 -408 383 -100 50 -316 113 -495 143 -134 23 -435 28 -580 10z"/>
<path d="M20152 7058 c-27 -34 -382 -714 -380 -727 3 -14 35 -16 246 -19 l242
-2 0 -78 c0 -47 5 -83 12 -90 8 -8 48 -12 113 -12 65 0 105 4 113 12 9 9 12
88 12 293 0 205 -3 284 -12 293 -8 8 -48 12 -113 12 -65 0 -105 -4 -113 -12
-8 -8 -12 -46 -12 -105 l0 -93 -65 0 c-36 0 -65 2 -65 4 0 2 63 117 141 255
116 207 139 254 129 266 -16 20 -232 22 -248 3z"/>
<path d="M21002 7058 c-9 -9 -12 -124 -12 -458 0 -334 3 -449 12 -458 8 -8 50
-12 123 -12 73 0 115 4 123 12 8 8 12 64 12 185 l0 173 130 0 130 0 2 -182 3
-183 114 -3 c75 -2 118 1 127 9 19 16 21 898 2 917 -13 13 -202 17 -232 6 -14
-5 -16 -29 -16 -165 l0 -159 -130 0 -130 0 0 153 c0 106 -4 157 -12 165 -8 8
-50 12 -123 12 -73 0 -115 -4 -123 -12z"/>
<path d="M19147 7053 c-12 -12 -8 -188 5 -201 8 -8 55 -12 144 -12 144 0 164
-7 164 -56 0 -15 -75 -137 -200 -323 -134 -200 -198 -304 -194 -315 5 -14 41
-16 338 -16 245 0 335 3 344 12 13 13 17 163 6 192 -5 14 -28 16 -150 16 -79
0 -144 3 -144 6 0 3 54 85 120 183 65 97 126 193 135 214 19 45 20 137 1 180
-18 43 -62 86 -111 108 -35 16 -68 19 -246 19 -113 0 -209 -3 -212 -7z"/>
<path d="M22121 6845 c-172 -39 -272 -189 -258 -385 8 -108 32 -173 89 -235
72 -79 127 -100 263 -100 100 0 115 2 167 28 67 33 111 80 147 157 24 50 26
66 26 180 0 110 -3 131 -24 178 -64 142 -235 216 -410 177z m166 -239 c27 -23
28 -28 28 -116 0 -91 0 -92 -33 -121 -36 -33 -77 -37 -121 -14 -68 34 -80 187
-21 247 38 38 106 39 147 4z"/>
<path d="M23350 6846 c-30 -7 -67 -18 -82 -24 -43 -18 -117 -92 -143 -142 -69
-137 -53 -359 35 -469 83 -106 260 -122 353 -34 l27 27 0 -26 c0 -42 19 -49
131 -46 l104 3 3 225 c2 202 0 232 -18 292 -37 122 -131 189 -285 201 -43 4
-91 1 -125 -7z m142 -227 c70 -37 61 -229 -12 -267 -32 -16 -96 -9 -121 14
-28 25 -42 89 -34 153 9 73 45 111 105 111 23 0 50 -5 62 -11z"/>
<path d="M22786 6825 c-58 -21 -88 -46 -116 -101 -24 -47 -25 -54 -28 -307 -3
-192 -1 -261 8 -272 16 -19 209 -22 228 -3 9 9 12 75 12 235 0 252 -3 243 82
243 24 0 49 5 56 12 7 7 12 44 12 98 0 54 -5 91 -12 98 -17 17 -193 15 -242
-3z"/>
<path d="M23995 6828 c-66 -23 -115 -93 -115 -163 0 -50 17 -87 93 -194 37
-52 64 -98 61 -102 -3 -5 -31 -9 -63 -9 -31 0 -62 -5 -69 -12 -8 -8 -12 -46
-12 -103 0 -57 4 -95 12 -103 18 -18 212 -16 275 3 111 33 159 151 104 254 -7
13 -39 60 -72 106 -32 45 -59 89 -59 98 0 13 13 17 63 19 l62 3 0 105 0 105
-125 2 c-69 1 -138 -3 -155 -9z"/>
<path d="M14000 6483 c-287 -45 -489 -137 -677 -307 -126 -114 -248 -322 -300
-511 -25 -95 -27 -112 -27 -315 0 -201 2 -221 26 -312 87 -321 311 -581 614
-712 267 -116 609 -147 889 -82 134 31 304 88 371 124 l49 27 8 114 c9 130 4
144 -42 112 -53 -38 -233 -119 -312 -141 -237 -64 -530 -34 -737 76 -192 101
-321 246 -403 449 -55 139 -64 192 -63 410 0 236 12 297 94 461 98 201 272
341 490 395 79 20 331 17 442 -5 151 -29 257 -65 395 -133 74 -36 137 -63 140
-59 6 5 42 224 43 257 0 29 -329 114 -553 144 -106 13 -381 19 -447 8z"/>
<path d="M2364 6467 c-2 -7 -3 -62 -2 -123 l3 -109 377 -3 378 -2 2 -1008 3
-1007 183 -3 182 -2 0 1010 0 1010 378 2 377 3 3 123 3 122 -941 0 c-768 0
-942 -2 -946 -13z"/>
<path d="M9366 6466 c-54 -20 -85 -45 -121 -95 -24 -34 -30 -54 -33 -112 -4
-60 -1 -77 23 -125 50 -101 154 -150 257 -120 179 52 242 257 119 389 -59 64
-168 92 -245 63z"/>
<path d="M5220 6260 c-162 -116 -296 -214 -298 -219 -6 -17 49 -113 61 -108 7
2 134 46 282 97 372 127 425 148 425 168 0 20 -150 264 -165 269 -5 1 -143
-92 -305 -207z"/>
<path d="M15804 6208 c-115 -144 -213 -268 -217 -275 -9 -15 10 -73 24 -73 4
0 98 54 207 120 110 66 206 120 214 119 7 0 101 -56 208 -123 107 -68 200
-121 205 -119 6 2 16 16 21 32 11 27 2 39 -210 304 -122 152 -226 276 -232
276 -6 1 -105 -117 -220 -261z"/>
<path d="M9265 5728 c-3 -7 -4 -350 -3 -763 l3 -750 183 -3 182 -2 0 765 0
765 -180 0 c-135 0 -182 -3 -185 -12z"/>
<path d="M6935 5719 c-193 -28 -361 -105 -474 -219 -88 -88 -132 -157 -172
-272 -43 -125 -50 -230 -47 -643 l3 -370 183 -3 182 -2 0 442 c0 244 5 475 10
513 18 129 94 250 200 317 85 54 168 73 323 72 l137 0 0 88 0 88 -142 -1 c-79
-1 -170 -5 -203 -10z"/>
<path d="M10628 5720 c-243 -34 -450 -175 -547 -371 -103 -210 -116 -428 -40
-665 72 -226 232 -376 475 -446 69 -20 102 -23 259 -23 207 0 259 10 394 76
119 58 222 162 280 279 67 138 85 219 85 395 0 135 -3 159 -27 238 -82 266
-249 434 -496 498 -89 23 -282 33 -383 19z m310 -216 c109 -36 187 -137 218
-282 19 -92 19 -413 -1 -507 -32 -156 -113 -255 -235 -289 -104 -29 -293 -17
-369 23 -74 40 -131 119 -166 231 -26 81 -33 405 -12 518 36 190 128 294 286
322 68 13 218 4 279 -16z"/>
<path d="M15840 5719 c-236 -30 -416 -151 -509 -341 -69 -140 -84 -216 -84
-413 0 -143 3 -183 21 -250 68 -252 217 -407 452 -475 107 -31 333 -39 414
-16 32 10 75 28 95 40 44 28 144 135 169 179 17 32 17 32 20 -100 l3 -133 185
0 185 0 -4 453 c-4 486 -6 505 -62 652 -14 37 -35 84 -47 104 -35 58 -128 151
-192 193 -143 93 -411 137 -646 107z m353 -219 c163 -61 235 -234 224 -535 -8
-217 -47 -338 -146 -447 -68 -76 -126 -101 -245 -106 -226 -10 -347 77 -398
287 -23 98 -25 419 -3 523 25 122 79 208 161 258 84 53 293 63 407 20z"/>
<path d="M18840 5715 c-139 -29 -250 -81 -337 -159 l-48 -44 -49 45 c-127 115
-338 173 -581 160 -209 -11 -361 -73 -486 -197 -86 -86 -135 -167 -173 -286
-41 -133 -47 -218 -44 -634 l3 -385 180 0 180 0 6 485 c6 517 8 539 59 640 67
131 201 191 392 177 169 -13 251 -85 300 -263 20 -75 21 -106 26 -562 l4 -482
181 2 182 3 1 480 c1 409 3 489 17 542 36 138 92 214 189 259 59 27 70 29 193
29 115 0 136 -3 183 -24 84 -38 136 -110 169 -233 14 -53 17 -142 22 -558 l6
-495 180 0 180 0 0 440 c0 485 -4 525 -66 685 -79 205 -259 339 -511 380 -86
14 -279 11 -358 -5z"/>
<path d="M20669 5715 c-180 -29 -335 -116 -425 -237 -146 -196 -190 -503 -114
-786 85 -314 327 -482 695 -482 129 0 196 15 266 61 52 33 141 131 162 178 10
21 13 4 17 -104 l5 -130 185 0 185 0 0 420 c-1 358 -4 433 -18 508 -37 183
-107 321 -210 412 -67 59 -189 119 -297 145 -113 27 -332 35 -451 15z m300
-195 c154 -26 245 -120 287 -297 21 -91 15 -388 -10 -478 -41 -144 -123 -257
-221 -305 -45 -23 -62 -25 -175 -25 -145 0 -195 16 -267 87 -87 85 -122 220
-122 468 0 235 30 364 107 451 78 89 229 126 401 99z"/>
<path d="M22657 5719 c-379 -55 -617 -268 -681 -608 -13 -67 -16 -162 -16
-492 l0 -409 183 2 182 3 5 490 c6 549 6 541 81 654 22 33 57 74 79 91 101 80
250 118 417 105 l93 -7 0 91 0 91 -142 -1 c-79 -1 -169 -5 -201 -10z"/>
<path d="M23828 5719 c-244 -36 -418 -150 -512 -336 -69 -138 -105 -356 -86
-518 24 -198 81 -342 180 -449 135 -146 326 -213 583 -204 105 3 130 8 178 30
70 32 127 83 186 165 25 35 47 63 50 63 2 0 3 -57 1 -127 l-3 -128 185 0 185
0 3 370 c3 387 -4 507 -39 644 -83 329 -354 506 -769 500 -47 -1 -111 -5 -142
-10z m277 -200 c78 -14 143 -48 188 -98 84 -93 110 -192 110 -411 0 -243 -46
-393 -156 -503 -76 -77 -119 -92 -267 -92 -116 0 -129 2 -182 28 -95 47 -153
126 -185 254 -25 97 -25 450 0 540 19 73 55 148 92 191 68 81 242 120 400 91z"/>
<path d="M8194 5709 c-95 -11 -246 -60 -319 -104 -211 -128 -338 -333 -364
-588 -23 -237 46 -460 192 -614 171 -180 367 -246 667 -223 201 15 292 36 457
106 l93 39 0 58 c0 31 -4 57 -10 57 -5 0 -54 -12 -107 -27 -86 -23 -116 -26
-248 -26 -176 0 -258 18 -383 83 -188 98 -298 239 -323 416 -19 137 6 287 65
387 79 137 266 227 441 213 134 -10 212 -63 296 -201 18 -30 38 -55 44 -55 7
0 40 23 75 51 35 28 83 61 106 72 l43 20 -21 41 c-12 23 -51 71 -89 109 -140
140 -383 214 -615 186z"/>
<path d="M5090 5694 c-426 -91 -682 -499 -576 -917 84 -331 349 -547 691 -564
130 -7 179 2 319 57 137 54 129 47 115 106 -6 27 -15 52 -18 56 -3 4 -60 -4
-126 -17 -239 -49 -375 -23 -500 96 -79 74 -118 159 -150 317 l-7 32 556 0
556 0 6 26 c10 40 -3 221 -21 289 -57 215 -226 404 -434 482 -137 52 -283 65
-411 37z m264 -204 c78 -30 139 -88 181 -173 31 -64 64 -181 65 -229 0 -17
-25 -18 -379 -18 l-380 0 6 38 c12 75 54 190 92 249 43 66 83 101 151 132 62
28 189 29 264 1z"/>
<path d="M14657 3704 c-33 -10 -66 -32 -102 -67 -81 -79 -87 -107 -93 -425 -4
-284 -3 -292 47 -292 46 0 51 14 51 152 l0 128 225 0 224 0 3 -137 3 -138 40
0 40 0 0 295 c0 289 0 296 -23 342 -33 66 -99 123 -163 142 -65 20 -188 19
-252 0z m206 -79 c56 -9 113 -65 132 -128 8 -28 15 -86 15 -129 l0 -78 -225 0
-225 0 0 83 c0 102 12 148 52 193 38 43 58 54 117 63 46 8 61 7 134 -4z"/>
<path d="M20117 3704 c-33 -10 -66 -32 -102 -67 -81 -79 -87 -107 -93 -425 -4
-284 -3 -292 47 -292 46 0 51 14 51 152 l0 128 225 0 224 0 3 -137 3 -138 40
0 40 0 0 295 c0 289 0 296 -23 342 -33 66 -99 123 -163 142 -65 20 -188 19
-252 0z m206 -79 c56 -9 113 -65 132 -128 8 -28 15 -86 15 -129 l0 -78 -225 0
-225 0 0 83 c0 102 12 148 52 193 38 43 58 54 117 63 46 8 61 7 134 -4z"/>
<path d="M22517 3704 c-33 -10 -66 -32 -102 -67 -81 -79 -87 -107 -93 -425 -4
-284 -3 -292 47 -292 46 0 51 14 51 152 l0 128 225 0 224 0 3 -137 3 -138 40
0 40 0 0 295 c0 289 0 296 -23 342 -33 66 -99 123 -163 142 -65 20 -188 19
-252 0z m206 -79 c56 -9 113 -65 132 -128 8 -28 15 -86 15 -129 l0 -78 -225 0
-225 0 0 83 c0 102 12 148 52 193 38 43 58 54 117 63 46 8 61 7 134 -4z"/>
<path d="M24077 3704 c-33 -10 -66 -32 -102 -67 -81 -79 -87 -107 -93 -425 -4
-284 -3 -292 47 -292 46 0 51 14 51 152 l0 128 225 0 224 0 3 -137 3 -138 40
0 40 0 0 295 c0 289 0 296 -23 342 -33 66 -99 123 -163 142 -65 20 -188 19
-252 0z m206 -79 c56 -9 113 -65 132 -128 8 -28 15 -86 15 -129 l0 -78 -225 0
-225 0 0 83 c0 102 12 148 52 193 38 43 58 54 117 63 46 8 61 7 134 -4z"/>
<path d="M7400 3694 c-131 -48 -197 -138 -220 -303 -28 -204 47 -380 189 -444
63 -29 216 -36 293 -13 154 44 233 175 232 386 0 183 -58 296 -182 357 -50 24
-70 28 -162 30 -77 2 -117 -1 -150 -13z m257 -89 c51 -21 80 -50 111 -110 25
-46 27 -59 27 -175 0 -115 -2 -130 -27 -182 -32 -70 -87 -112 -165 -129 -197
-40 -333 85 -333 306 0 163 70 273 195 306 43 12 147 3 192 -16z"/>
<path d="M8209 3697 c-60 -22 -105 -55 -132 -94 -49 -73 -52 -98 -52 -393 l0
-275 184 -3 c208 -3 255 6 337 60 98 66 140 182 132 360 -9 171 -62 269 -176
325 -49 24 -71 28 -157 30 -66 2 -112 -1 -136 -10z m238 -92 c80 -33 118 -94
135 -215 9 -62 9 -96 0 -151 -14 -82 -29 -114 -73 -157 -49 -48 -106 -63 -256
-69 l-133 -6 1 234 c1 234 5 269 39 315 20 28 63 55 103 65 44 11 139 3 184
-16z"/>
<path d="M9020 3694 c-131 -48 -197 -138 -220 -303 -28 -204 47 -380 189 -444
63 -29 216 -36 293 -13 154 44 233 175 232 386 0 183 -58 296 -182 357 -50 24
-70 28 -162 30 -77 2 -117 -1 -150 -13z m257 -89 c51 -21 80 -50 111 -110 25
-46 27 -59 27 -175 0 -115 -2 -130 -27 -182 -32 -70 -87 -112 -165 -129 -197
-40 -333 85 -333 306 0 163 70 273 195 306 43 12 147 3 192 -16z"/>
<path d="M9844 3699 c-63 -18 -127 -71 -157 -129 -40 -78 -48 -155 -45 -410
l3 -225 45 0 45 0 5 275 c5 261 6 277 27 317 56 104 247 136 349 58 64 -49 68
-70 74 -375 l5 -275 45 0 45 0 3 210 c1 116 -2 247 -7 292 -17 140 -79 227
-185 258 -55 16 -202 19 -252 4z"/>
<path d="M11330 3694 c-131 -48 -197 -138 -220 -303 -28 -204 47 -380 189
-444 63 -29 216 -36 293 -13 154 44 233 175 232 386 0 183 -58 296 -182 357
-50 24 -70 28 -162 30 -77 2 -117 -1 -150 -13z m257 -89 c51 -21 80 -50 111
-110 25 -46 27 -59 27 -175 0 -115 -2 -130 -27 -182 -32 -70 -87 -112 -165
-129 -197 -40 -333 85 -333 306 0 163 70 273 195 306 43 12 147 3 192 -16z"/>
<path d="M12800 3694 c-131 -48 -197 -138 -220 -303 -28 -204 47 -380 189
-444 63 -29 216 -36 293 -13 154 44 233 175 232 386 0 183 -58 296 -182 357
-50 24 -70 28 -162 30 -77 2 -117 -1 -150 -13z m257 -89 c51 -21 80 -50 111
-110 25 -46 27 -59 27 -175 0 -115 -2 -130 -27 -182 -32 -70 -87 -112 -165
-129 -197 -40 -333 85 -333 306 0 163 70 273 195 306 43 12 147 3 192 -16z"/>
<path d="M15754 3694 c-60 -22 -118 -75 -145 -136 -23 -52 -24 -60 -24 -338
l0 -285 45 0 45 0 3 108 3 107 138 0 c214 0 309 39 362 147 35 73 33 188 -4
265 -32 66 -87 111 -161 133 -63 19 -208 18 -262 -1z m206 -75 c59 -13 116
-57 136 -106 8 -18 14 -58 14 -89 0 -80 -28 -127 -98 -161 -49 -24 -69 -27
-193 -31 l-139 -5 0 129 c0 104 4 137 19 170 39 85 136 120 261 93z"/>
<path d="M17250 3701 c-76 -23 -127 -69 -162 -146 -22 -48 -23 -59 -23 -335
l0 -285 45 0 45 0 5 292 c5 276 6 293 26 320 63 84 208 109 297 49 55 -37 77
-81 77 -151 0 -112 -60 -165 -188 -165 -55 0 -74 -4 -78 -15 -4 -10 45 -70
141 -175 l147 -160 48 0 c27 0 52 5 55 10 4 6 -46 66 -109 134 l-116 124 32
11 c60 21 103 57 133 112 25 46 29 64 29 129 0 62 -5 84 -27 128 -30 57 -90
103 -157 122 -41 11 -183 12 -220 1z"/>
<path d="M18520 3694 c-131 -48 -197 -138 -220 -303 -28 -204 47 -380 189
-444 63 -29 216 -36 293 -13 154 44 233 175 232 386 0 183 -58 296 -182 357
-50 24 -70 28 -162 30 -77 2 -117 -1 -150 -13z m257 -89 c51 -21 80 -50 111
-110 25 -46 27 -59 27 -175 0 -115 -2 -130 -27 -182 -32 -70 -87 -112 -165
-129 -197 -40 -333 85 -333 306 0 163 70 273 195 306 43 12 147 3 192 -16z"/>
<path d="M19344 3699 c-63 -18 -127 -71 -157 -129 -40 -78 -48 -155 -45 -410
l3 -225 45 0 45 0 5 275 c5 261 6 277 27 317 56 104 247 136 349 58 64 -49 68
-70 74 -375 l5 -275 45 0 45 0 3 210 c1 116 -2 247 -7 292 -17 140 -79 227
-185 258 -55 16 -202 19 -252 4z"/>
<path d="M23289 3697 c-60 -22 -105 -55 -132 -94 -49 -73 -52 -98 -52 -393 l0
-275 184 -3 c208 -3 255 6 337 60 98 66 140 182 132 360 -9 171 -62 269 -176
325 -49 24 -71 28 -157 30 -66 2 -112 -1 -136 -10z m238 -92 c80 -33 118 -94
135 -215 9 -62 9 -96 0 -151 -14 -82 -29 -114 -73 -157 -49 -48 -106 -63 -256
-69 l-133 -6 1 234 c1 234 5 269 39 315 20 28 63 55 103 65 44 11 139 3 184
-16z"/>
<path d="M10382 3663 l3 -38 137 -3 138 -3 2 -342 3 -342 45 0 45 0 3 342 2
342 138 3 137 3 3 38 3 37 -331 0 -331 0 3 -37z"/>
<path d="M11954 3686 c-3 -8 -4 -135 -2 -283 3 -217 7 -276 21 -310 24 -63 54
-98 111 -130 51 -28 52 -28 231 -28 l180 0 0 35 0 35 -155 6 c-160 5 -197 14
-238 52 -46 42 -47 51 -52 347 l-5 285 -43 3 c-30 2 -44 -1 -48 -12z"/>
<path d="M13633 3686 c-140 -44 -213 -152 -221 -325 -9 -204 57 -345 194 -412
43 -21 63 -24 159 -24 100 0 115 2 161 27 62 32 108 85 129 147 18 53 31 197
21 235 -6 25 -10 27 -49 24 l-42 -3 -5 -111 c-4 -99 -8 -115 -32 -151 -38 -57
-104 -88 -188 -87 -160 1 -252 114 -253 309 -1 153 31 221 127 269 56 28 67
30 220 35 l161 6 0 35 0 35 -170 2 c-118 1 -183 -2 -212 -11z"/>
<path d="M14225 3687 c-3 -6 -4 -179 -3 -382 l3 -370 43 -3 42 -3 0 385 0 386
-40 0 c-23 0 -43 -5 -45 -13z"/>
<path d="M16545 3686 c-177 -56 -257 -191 -242 -409 10 -156 67 -251 185 -309
l67 -33 187 -3 188 -4 0 40 0 40 -167 4 c-148 4 -174 7 -221 28 -85 37 -121
89 -147 212 l-5 28 267 2 268 3 0 40 0 40 -266 3 -266 2 8 46 c19 102 82 166
186 190 34 8 116 14 201 14 l142 0 0 40 0 40 -172 -1 c-110 0 -188 -5 -213
-13z"/>
<path d="M17865 3682 c-50 -31 -68 -59 -73 -110 -7 -73 20 -119 155 -273 148
-168 168 -214 112 -265 -17 -15 -42 -20 -142 -24 l-122 -5 0 -35 0 -35 142 0
c154 0 170 5 217 68 26 36 33 121 12 170 -8 21 -70 101 -138 178 -126 143
-153 186 -143 220 11 32 46 43 155 49 l105 5 0 35 0 35 -125 3 c-108 2 -129 0
-155 -16z"/>
<path d="M20704 3686 c-3 -8 -4 -135 -2 -283 3 -217 7 -276 21 -310 24 -63 54
-98 111 -130 51 -28 52 -28 231 -28 l180 0 0 35 0 35 -155 6 c-160 5 -197 14
-238 52 -46 42 -47 51 -52 347 l-5 285 -43 3 c-30 2 -44 -1 -48 -12z"/>
<path d="M21355 3687 c-3 -6 -4 -179 -3 -382 l3 -370 43 -3 42 -3 0 385 0 386
-40 0 c-23 0 -43 -5 -45 -13z"/>
<path d="M21594 3686 c-3 -8 -4 -25 -2 -38 l3 -23 233 -3 c147 -1 232 -6 230
-12 -2 -6 -117 -156 -256 -335 -139 -179 -250 -330 -247 -335 4 -6 131 -10
336 -10 l330 0 -3 38 -3 37 -251 5 -252 5 259 333 c143 183 257 337 254 343
-4 5 -132 9 -316 9 -259 0 -311 -2 -315 -14z"/>
</g>
</svg>
